<svg xmlns="http://www.w3.org/2000/svg" viewBox="0 0 623.25 550.25"><title>logosvg</title><path d="M711.36,113.54C625.87-61.67,420.82,57.82,420.82,57.82s-204.77-120-290.67,55C41.49,293.51,252.3,494.15,384.86,559.14c1.63.8,3.25,1.57,4.86,2.34a75.36,75.36,0,0,0,61,.07c1.65-.72,3.28-1.49,4.87-2.33C588.33,494.54,799.6,294.39,711.36,113.54Z" transform="translate(-109.03 -17.71)" style="fill:#fff"/><path d="M262.18,273.69,290,240.58c17.71,14.15,37.49,21.62,58.3,21.65,13.36,0,20.56-4.6,20.57-12.31v-.52c0-7.45-5.9-11.57-30.3-17.25-38.28-8.78-67.81-19.6-67.77-56.6V175c0-33.41,26.53-57.53,69.7-57.48,30.58,0,54.46,8.29,74,24l-25,35.17c-16.43-11.58-34.41-17.77-50.34-17.78-12.08,0-18,5.11-18,11.54V171c0,8.22,6.15,11.83,31.07,17.51,41.35,9,67,22.43,67,56.09v.51c0,36.75-29.1,58.55-72.78,58.5C314.56,303.55,284.25,293.5,262.18,273.69Z" transform="translate(-109.03 -17.71)" style="fill:#ffaf00"/><path d="M427.29,120.74l77.08.09c45.48.06,74.74,23.47,74.7,63.3v.51c-.05,42.4-32.71,64.71-77.42,64.66l-24.66,0-.06,51.39-49.85-.06Zm73.38,89.5c17.73,0,28.53-9.21,28.55-23.34v-.52c0-15.41-10.77-23.65-28.75-23.67l-23.38,0L477,210.22Z" transform="translate(-109.03 -17.71)" style="fill:#ffaf00"/><path d="M299.88,347.25l-33.2,0,0-22.14,90.42.11,0,22.14-33.2,0-.1,87-24,0Z" transform="translate(-109.03 -17.71)" style="fill:#231f20"/><path d="M378.83,324.42l22.13,0,46.64,110-25.09,0-9.95-24.49-46.14-.05-10,24.46-24.47,0ZM404,388.68l-14.46-35.4L375,388.65Z" transform="translate(-109.03 -17.71)" style="fill:#231f20"/><path d="M478.37,379,442,325.28l28.06,0,22.87,35.41L516,325.36l27.28,0-36.54,53.27,38,55.86-28.06,0L492.22,397l-24.67,37.39-27.28,0Z" transform="translate(-109.03 -17.71)" style="fill:#231f20"/><path d="M550.31,325.4l24,0-.13,109.12-24,0Z" transform="translate(-109.03 -17.71)" style="fill:#231f20"/></svg>