<?xml version="1.0" encoding="utf-8"?>
<svg version="1.1" id="Layer_1" xmlns="http://www.w3.org/2000/svg" xmlns:xlink="http://www.w3.org/1999/xlink" x="0px" y="0px"
	 viewBox="0 0 841.9 595.3" style="enable-background:new 0 0 841.9 595.3;" xml:space="preserve">
<style type="text/css">
	.st0{fill:#007EC4;}
</style>
<path class="st0" d="M773.6,86.6c-0.6,0-1-0.1-1.4-0.1c-7,0-14,0-21,0c-1.1,0-1.5,0.4-1.9,1.3c-7.3,19.3-14.6,38.5-21.9,57.8
	c-1.9,5.1-5.5,8.4-10.8,9.8c-0.7,0.2-1.5,0.2-2.3,0.2c-3.3,0-6.6,0.1-9.8,0c-4.4-0.1-7-3.4-5.8-7.7c0.9-3.3,2.3-6.4,3.5-9.6
	c6.3-16.8,12.7-33.5,19.1-50.3c0.2-0.4,0.3-0.9,0.4-1.5c-0.6,0-1-0.1-1.4-0.1c-7,0-14,0-21,0c-1,0-1.5,0.3-1.9,1.3
	c-7.3,19.4-14.7,38.8-22,58.1c-1.9,5-5.5,8.1-10.6,9.5c-0.7,0.2-1.4,0.2-2.1,0.2c-3.3,0-6.6-0.1-9.8,0c-4.4,0.1-7.3-3.7-5.8-8.1
	c1.4-4,2.9-8,4.5-12c8.5-22.4,16.9-44.7,25.4-67.1c2-5.3,5.9-8.6,11.5-9.8c0.5-0.1,0.9-0.1,1.4-0.1c33.6,0,67.2,0,100.8,0
	c7.8,0,13.1,4.4,14.5,11.5c0.7,3.6,0.1,7.1-1.2,10.4c-3.6,9.6-7.3,19.2-10.9,28.8c-4.6,12.2-9.3,24.5-13.9,36.7
	c-1.9,4.9-5.5,7.9-10.5,9.3c-0.5,0.1-1.1,0.2-1.7,0.2c-3.6,0-7.1,0.1-10.7,0c-4.2-0.1-6.7-3.4-5.6-7.5c0.9-3.1,2.1-6.1,3.3-9.1
	c6.4-17,12.9-34,19.4-51.1C773.3,87.6,773.4,87.2,773.6,86.6z"/>
<path class="st0" d="M440.3,127.8c0.7,0,1.2,0,1.7,0c14.6,0,29.1,0,43.7,0c2.4,0,4.6,0.6,6,2.8c1,1.7,1.1,3.5,0.5,5.3
	c-1.4,3.8-2.6,7.8-4.4,11.4c-2.6,5.3-6.9,8.4-13.1,8.4c-16.6,0-33.3,0-49.9,0c-3.2,0-6.3-0.3-9.1-1.9c-5-2.9-7.1-7.4-7-13.1
	c0.1-3,0.9-5.7,2-8.5c6.6-17.3,12.8-34.7,19.8-51.8c4.9-11.8,14.3-18.8,26.9-21.5c1.3-0.3,2.7-0.3,4.1-0.3c20.7,0,41.4,0,62,0
	c1.3,0,1.8-0.4,2.2-1.6c2.9-7.9,5.9-15.7,8.9-23.5c2-5.1,5.8-8.2,11.1-9.4c0.5-0.1,1-0.1,1.4-0.1c3.3,0,6.6,0,10,0
	c4.4,0,7.1,3.4,5.9,7.6c-1,3.3-2.3,6.5-3.5,9.8c-11.1,29.2-22.1,58.5-33.2,87.7c-2.2,5.7-4.3,11.4-6.5,17.1
	c-1.9,4.8-5.5,7.8-10.5,9.2c-0.6,0.2-1.2,0.2-1.8,0.2c-3.5,0-7,0.1-10.4,0c-4.3-0.1-6.8-3.4-5.6-7.6c0.9-3.1,2.1-6,3.2-9
	c6.4-17,12.9-34,19.4-51.1c0.1-0.4,0.2-0.8,0.4-1.4c-0.6,0-1.1-0.1-1.6-0.1c-18.4,0-36.9,0-55.3,0c-1.1,0-1.7,0.4-2.1,1.4
	c-4.8,12.9-9.7,25.7-14.6,38.5C440.5,126.9,440.4,127.2,440.3,127.8z"/>
<path class="st0" d="M180.6,86.6c-0.8,0-1.4,0-1.9,0c-18.2,0-36.4,0-54.6,0c-1.9,0-1.9,0-2.6,1.8c-11.7,30.8-23.3,61.6-35,92.4
	c-2.3,6-7.7,9.7-14.1,9.7c-3.1,0-6.2-0.1-9.3-0.2c-3.4-0.1-6.2-3.3-5-7.6c1-3.5,2.5-6.9,3.8-10.4c10.8-28.5,21.6-57,32.4-85.6
	c2.3-6.2,4.6-12.4,7.1-18.6c2.1-5.2,6-8.3,11.5-9.4c0.4-0.1,0.8-0.1,1.2-0.1c27.8,0,55.7-0.1,83.5,0c7,0,12.3,3.5,14.3,10.4
	c1.2,4,0.5,7.8-0.9,11.6c-3.4,9.1-6.9,18.2-10.3,27.3c-3.2,8.5-6.2,17.1-9.7,25.5c-4.9,11.7-14,18.8-26.2,21.8
	c-1.7,0.4-3.6,0.4-5.4,0.4c-15.6,0-31.1,0-46.7,0c-0.9,0-1.9,0-2.7-0.2c-3.3-0.8-5.2-3.9-4-7.5c1.3-4.2,2.7-8.4,4.7-12.3
	c2.6-5.2,7.2-7.9,13.1-8c13.4,0,26.7,0,40.1,0c1.2,0,1.7-0.4,2.1-1.4c4.8-12.7,9.6-25.5,14.5-38.2C180.3,87.7,180.4,87.3,180.6,86.6
	z"/>
<path class="st0" d="M561.2,127.8c0.7,0,1.2,0,1.7,0c18.5,0,37,0,55.4,0c1.1,0,1.6-0.4,2-1.4c4.8-12.7,9.6-25.5,14.4-38.2
	c0.2-0.4,0.3-0.9,0.5-1.6c-0.7-0.1-1.3-0.1-1.9-0.1c-19.1,0-38.2,0-57.4,0c-0.8,0-1.6,0-2.4-0.1c-3.7-0.7-5.6-4-4.3-7.9
	c1.3-4,2.6-8,4.5-11.7c2.6-5.2,7-8.2,13.1-8.2c21.7,0,43.4,0,65,0c3.4,0,6.7,0.8,9.4,2.9c4.5,3.5,6,8.3,5.4,13.8
	c-0.5,4.3-2.4,8.1-3.9,12c-7.4,19.5-14.8,39.1-22.2,58.6c-1.9,4.9-5.5,8.1-10.6,9.4c-0.9,0.3-2,0.2-3,0.2c-27.2,0-54.3,0-81.5,0
	c-2.9,0-5.7-0.2-8.3-1.5c-5-2.5-7.5-6.7-7.8-12.3c-0.2-2.8,0.4-5.5,1.4-8.1c2.4-6.3,4.5-12.8,7.2-18.9c5.3-11.7,14.5-18.8,27-21.5
	c1.2-0.2,2.4-0.3,3.6-0.3c16,0,31.9,0,47.9,0c0.9,0,1.8,0.1,2.6,0.3c3.1,0.9,4.8,4,3.8,7.4c-1.4,4.2-2.8,8.6-4.8,12.5
	c-2.6,4.9-6.8,7.7-12.6,7.7c-13.4,0-26.8,0-40.2,0c-1.4,0-2,0.4-2.4,1.7C562.6,124.4,561.9,126,561.2,127.8z"/>
<path class="st0" d="M337.9,155.7c-12.3,0-24.6,0.1-36.8,0c-7.6-0.1-13.5-6.4-13.6-14c0-3.4,0.9-6.6,2.1-9.8
	c6.4-16.9,12.6-33.8,19.3-50.6c4.9-12.3,14.3-19.5,27.1-22.4c1-0.2,2.1-0.3,3.2-0.3c23.6,0,47.2-0.1,70.8,0
	c7.3,0,12.7,3.8,14.4,10.9c1,3.9,0.2,7.7-1.2,11.4c-6.6,17.4-13,34.9-19.9,52.2c-4.7,11.9-13.9,19.1-26.3,22.1
	c-1.8,0.4-3.8,0.4-5.7,0.4C360.2,155.8,349,155.7,337.9,155.7C337.9,155.7,337.9,155.7,337.9,155.7z M319.1,127.7
	c0.6,0,1,0.1,1.4,0.1c18.6,0,37.3,0,55.9,0c0.9,0,1.3-0.3,1.7-1.1c4.8-12.8,9.7-25.5,14.5-38.3c0.2-0.5,0.3-1,0.5-1.7
	c-0.6,0-1-0.1-1.4-0.1c-18.6,0-37.1,0-55.7,0c-1,0-1.5,0.4-1.8,1.3c-4.6,12.1-9.2,24.2-13.7,36.3C320,125.3,319.6,126.4,319.1,127.7
	z"/>
<path class="st0" d="M268.6,86.6c-0.7,0-1.2-0.1-1.7-0.1c-7.4,0-14.8,0-22.2,0c-1.2,0-1.7,0.4-2.1,1.5c-6.8,18-13.6,35.9-20.4,53.9
	c-1.1,2.8-1.8,5.8-3.8,8.2c-3,3.5-6.6,5.8-11.5,5.7c-3.1-0.1-6.2,0-9.2-0.1c-4.2-0.1-6.8-3.4-5.6-7.5c1-3.5,2.4-6.9,3.7-10.4
	c8.8-23.1,17.5-46.3,26.3-69.4c2.1-5.4,6-8.6,11.7-9.7c0.4-0.1,0.8-0.1,1.2-0.1c16.8,0,33.6-0.1,50.4,0c7.3,0,12.7,3.8,14.4,11.1
	c0.9,3.6,0.3,7.2-1,10.6c-1.8,4.8-3.6,9.6-5.4,14.5c-1.8,4.7-7.8,9.4-13.4,9.1c-3.1-0.2-6.2,0-9.4-0.1c-4-0.1-6.6-3.4-5.6-7.3
	c0.8-2.8,1.9-5.4,2.9-8.1C268.1,87.9,268.3,87.4,268.6,86.6z"/>
</svg>
