<svg class="soranameicon" clip-rule="evenodd" fill-rule="evenodd" image-rendering="optimizeQuality" shape-rendering="geometricPrecision" text-rendering="geometricPrecision" version="1.1" viewBox="0 0 48 48" xmlns="http://www.w3.org/2000/svg"><rect width="48" height="48" fill-opacity="0" pointer-events="none"/><g transform="matrix(.125 0 0 .125 .0026376 -.15377)"><g transform="matrix(1.3333 0 0 -1.3333 0 1889.8)"><g transform="translate(262,1374)"><path d="m0 0c0-1.343-0.441-2.455-1.322-3.336s-1.994-1.322-3.336-1.322h-103.73c-1.344 0-2.455 0.441-3.336 1.322-0.882 0.881-1.365 1.993-1.448 3.336v17.751c0.083 1.34 0.566 2.433 1.448 3.273 0.881 0.837 1.992 1.3 3.336 1.384h103.73c1.342-0.084 2.455-0.547 3.336-1.384 0.881-0.84 1.322-1.933 1.322-3.273zm0-50.104c0.083-13.766-3.21-24.256-9.882-31.473-6.673-7.217-17.479-10.826-32.417-10.826h-56.021c-1.344 0-2.435 0.44-3.273 1.322-0.84 0.881-1.302 1.951-1.385 3.21v22.66c0.083 1.341 0.545 2.455 1.385 3.336 0.838 0.881 1.929 1.322 3.273 1.322h52.118c2.853-0.085 5.245 0.629 7.176 2.14 1.93 1.511 2.937 3.859 3.021 7.05v0.755c0 1.259-0.484 2.329-1.447 3.21-0.966 0.882-2.203 1.322-3.714 1.322h-67.225c-1.511 0.082-2.729 0.586-3.651 1.511-0.924 0.923-1.385 2.14-1.385 3.651v20.898c0 1.34 0.461 2.454 1.385 3.336 0.922 0.881 2.14 1.321 3.651 1.321h79.814c9.483 0 16.617-2.413 21.401-7.238 4.784-4.828 7.176-11.897 7.176-21.213zm0-170.16c0-1.259-0.441-2.203-1.322-2.832-0.881-0.63-1.994-0.651-3.336-0.063l-14.1 8.434c-1.51-3.021-3.399-5.623-5.665-7.805-7.049-6.714-17.75-9.987-32.102-9.819h-51.866c-1.511 0-2.751 0.44-3.714 1.322-0.966 0.881-1.448 1.994-1.448 3.336v26.311c0 1.341 0.482 2.454 1.448 3.336 0.963 0.881 2.203 1.322 3.714 1.322h39.655c5.707-0.085 10.197 1.133 13.47 3.65l-38.019 22.661c-1.176 0.671-2.14 1.384-2.895 2.14-0.755 0.755-1.133 1.929-1.133 3.525v32.353c0 1.175 0.378 2.056 1.133 2.644 0.755 0.587 1.719 0.671 2.895 0.252l44.44-26.563v32.606c0.083 1.341 0.566 2.454 1.447 3.336 0.882 0.881 1.952 1.322 3.211 1.322h24.926c1.511 0 2.726-0.441 3.651-1.322 0.922-0.882 1.384-1.995 1.384-3.336v-53.252l9.568-5.665c1.342-0.672 2.455-1.491 3.336-2.455 0.881-0.966 1.322-2.372 1.322-4.217zm-129.04 54.133c-0.085-1.259-0.588-2.329-1.511-3.21-0.924-0.882-2.14-1.365-3.651-1.448h-26.563v-19.261c0.252-14.94-3.147-25.766-10.197-32.48s-17.75-9.987-32.102-9.819h-24.674c-1.511 0-2.75 0.44-3.714 1.322-0.966 0.881-1.448 1.994-1.448 3.336v26.311c0 1.341 0.482 2.454 1.448 3.336 0.964 0.881 2.203 1.322 3.714 1.322h14.981c6.377-0.085 10.868 1.048 13.47 3.399 2.6 2.349 3.903 6.965 3.903 13.848v8.686h-41.922c-1.343 0.083-2.455 0.566-3.336 1.448-0.881 0.881-1.322 1.951-1.322 3.21v26.185c0 1.342 0.441 2.538 1.322 3.588 0.881 1.048 1.993 1.574 3.336 1.574h41.922v11.33c0.082 1.341 0.566 2.454 1.447 3.336 0.882 0.881 1.952 1.322 3.21 1.322h24.927c1.51 0 2.726-0.441 3.651-1.322 0.922-0.882 1.384-1.995 1.384-3.336v-11.33h26.563c1.511 0 2.727-0.526 3.651-1.574 0.923-1.05 1.426-2.246 1.511-3.588zm-112.74 186.21c0.378 0.712 1.574 1.071 3.588 1.071h27.948c1.593 0 2.769-0.359 3.524-1.071 0.756-0.713 1.468-2.121 2.141-4.217l16.617-47.334c0.504-1.511 0.252-2.792-0.755-3.84-1.007-1.051-2.266-1.532-3.777-1.448h-24.926c-2.099-0.084-3.569 0.252-4.406 1.007-0.84 0.756-1.68 2.182-2.518 4.281l-16.869 47.334c-0.756 2.096-0.945 3.504-0.567 4.217m74.086-73.708c2.601 2.348 3.903 6.965 3.903 13.848v56.273c0.082 1.341 0.567 2.454 1.448 3.336 0.881 0.881 1.951 1.322 3.21 1.322h24.926c1.511 0 2.727-0.441 3.651-1.322 0.923-0.882 1.385-1.995 1.385-3.336v-66.848c0.252-14.94-3.147-25.766-10.197-32.48-7.05-6.713-17.751-9.986-32.102-9.819h-55.895c-1.511 0-2.751 0.441-3.714 1.322-0.966 0.881-1.448 1.994-1.448 3.336v26.311c0 1.341 0.482 2.455 1.448 3.336 0.963 0.881 2.203 1.322 3.714 1.322h46.201c6.377-0.085 10.868 1.048 13.47 3.399m147.85 95.959h-194c-25.85 0-47-21.15-47-47v-194c0-25.85 21.15-47 47-47h194c25.85 0 47 21.15 47 47v194c0 25.85-21.15 47-47 47" fill-rule="nonzero" stroke-opacity="0"/></g></g></g></svg>